<svg width="101" height="100" viewBox="0 0 101 100" fill="none" xmlns="http://www.w3.org/2000/svg">
<path d="M4.66669 87.5V66.6667H13V79.1667H25.5V87.5H4.66669ZM75.5 87.5V79.1667H88V66.6667H96.3334V87.5H75.5ZM17.1667 75V25H25.5V75H17.1667ZM29.6667 75V25H33.8334V75H29.6667ZM42.1667 75V25H50.5V75H42.1667ZM54.6667 75V25H67.1667V75H54.6667ZM71.3334 75V25H75.5V75H71.3334ZM79.6667 75V25H83.8334V75H79.6667ZM4.66669 33.3333V12.5H25.5V20.8333H13V33.3333H4.66669ZM88 33.3333V20.8333H75.5V12.5H96.3334V33.3333H88Z" fill="white"/>
</svg>
