<svg width="20" height="21" viewBox="0 0 20 21" fill="none" xmlns="http://www.w3.org/2000/svg">
<g clip-path="url(#clip0_21_166)">
<path d="M19.7266 17.793L15.832 13.8984C15.6562 13.7227 15.418 13.625 15.168 13.625H14.5312C15.6094 12.2461 16.25 10.5117 16.25 8.625C16.25 4.13672 12.6133 0.5 8.125 0.5C3.63672 0.5 0 4.13672 0 8.625C0 13.1133 3.63672 16.75 8.125 16.75C10.0117 16.75 11.7461 16.1094 13.125 15.0312V15.668C13.125 15.918 13.2227 16.1562 13.3984 16.332L17.293 20.2266C17.6602 20.5938 18.2539 20.5938 18.6172 20.2266L19.7227 19.1211C20.0898 18.7539 20.0898 18.1602 19.7266 17.793ZM8.125 13.625C5.36328 13.625 3.125 11.3906 3.125 8.625C3.125 5.86328 5.35938 3.625 8.125 3.625C10.8867 3.625 13.125 5.85938 13.125 8.625C13.125 11.3867 10.8906 13.625 8.125 13.625Z" fill="white"/>
</g>
<defs>
<clipPath id="clip0_21_166">
<rect width="20" height="20" fill="white" transform="translate(0 0.5)"/>
</clipPath>
</defs>
</svg>
