<svg width="257" height="152" viewBox="0 0 257 152" fill="none" xmlns="http://www.w3.org/2000/svg">
<g clip-path="url(#clip0_21_141)">
<path d="M128.5 29.5323C124.353 29.5323 120.299 30.762 116.851 33.066C113.403 35.3699 110.715 38.6446 109.128 42.476C107.541 46.3073 107.126 50.5233 107.935 54.5906C108.744 58.6579 110.741 62.394 113.674 65.3264C116.606 68.2588 120.342 70.2558 124.409 71.0648C128.477 71.8739 132.693 71.4587 136.524 69.8717C140.355 68.2847 143.63 65.5972 145.934 62.1491C148.238 58.7009 149.468 54.647 149.468 50.5C149.468 44.939 147.259 39.6058 143.326 35.6736C139.394 31.7414 134.061 29.5323 128.5 29.5323ZM128.5 55.3387C127.543 55.3387 126.607 55.0549 125.812 54.5232C125.016 53.9916 124.396 53.2359 124.03 52.3517C123.663 51.4675 123.568 50.4946 123.754 49.556C123.941 48.6174 124.402 47.7552 125.079 47.0785C125.755 46.4018 126.617 45.941 127.556 45.7543C128.495 45.5676 129.468 45.6634 130.352 46.0296C131.236 46.3958 131.992 47.016 132.523 47.8118C133.055 48.6075 133.339 49.543 133.339 50.5C133.339 51.7833 132.829 53.014 131.921 53.9215C131.014 54.8289 129.783 55.3387 128.5 55.3387ZM128.5 0.5C100.879 0.5 78.5 22.879 78.5 50.5C78.5 78.121 100.879 100.5 128.5 100.5C156.121 100.5 178.5 78.121 178.5 50.5C178.5 22.879 156.121 0.5 128.5 0.5ZM128.5 76.3064C123.396 76.3064 118.407 74.7929 114.163 71.9573C109.919 69.1216 106.611 65.0912 104.658 60.3757C102.705 55.6602 102.194 50.4714 103.189 45.4654C104.185 40.4594 106.643 35.8612 110.252 32.2521C113.861 28.643 118.459 26.1852 123.465 25.1894C128.471 24.1937 133.66 24.7047 138.376 26.6579C143.091 28.6112 147.122 31.9189 149.957 36.1627C152.793 40.4066 154.306 45.396 154.306 50.5C154.306 57.3443 151.588 63.9083 146.748 68.7479C141.908 73.5876 135.344 76.3064 128.5 76.3064Z" fill="#0D8293"/>
<path d="M128.5 0.5C100.879 0.5 78.5 22.879 78.5 50.5C78.5 78.121 100.879 100.5 128.5 100.5C156.121 100.5 178.5 78.121 178.5 50.5C178.5 22.879 156.121 0.5 128.5 0.5ZM128.5 76.3064C123.396 76.3064 118.407 74.7929 114.163 71.9573C109.919 69.1216 106.611 65.0912 104.658 60.3757C102.705 55.6602 102.194 50.4714 103.189 45.4654C104.185 40.4594 106.643 35.8612 110.252 32.2521C113.861 28.643 118.459 26.1852 123.465 25.1894C128.471 24.1937 133.66 24.7047 138.376 26.6579C143.091 28.6112 147.122 31.9189 149.957 36.1627C152.793 40.4066 154.306 45.396 154.306 50.5C154.306 57.3443 151.588 63.9083 146.748 68.7479C141.908 73.5876 135.344 76.3064 128.5 76.3064Z" fill="#EAE05C"/>
</g>
<path d="M3.95 92.5C3.53333 92.5 3.325 92.2917 3.325 91.875V59.8C3.325 59.3833 3.53333 59.175 3.95 59.175H19.2C19.6 59.175 19.9333 59.3083 20.2 59.575L25.2 64.575C25.4833 64.8583 25.625 65.1917 25.625 65.575V86.075C25.625 86.475 25.4833 86.8083 25.2 87.075L20.2 92.075C19.9333 92.3583 19.6 92.5 19.2 92.5H3.95ZM11.675 85.825H16.25C16.95 85.825 17.3 85.3583 17.3 84.425V67.25C17.3 66.3 16.95 65.825 16.25 65.825H11.675V85.825Z" fill="#FFDD33"/>
<path d="M32.0547 92.5C31.638 92.5 31.4297 92.2917 31.4297 91.875V65.625C31.4297 65.2083 31.638 65 32.0547 65H38.7047C39.1214 65 39.3297 65.2083 39.3297 65.625V91.875C39.3297 92.2917 39.1214 92.5 38.7047 92.5H32.0547ZM31.9297 62.925C31.5964 62.925 31.4297 62.7583 31.4297 62.425V59.25C31.4297 58.9167 31.5964 58.75 31.9297 58.75H38.8797C39.1797 58.75 39.3297 58.9167 39.3297 59.25V62.425C39.3297 62.7583 39.1797 62.925 38.8797 62.925H31.9297Z" fill="#FF5E7E"/>
<path d="M45.0004 92.5C44.5837 92.5 44.3754 92.2917 44.3754 91.875V87.825C44.3754 87.4417 44.5004 87.1917 44.7504 87.075L49.8504 84.05V81.45L44.7504 78.7C44.5004 78.55 44.3754 78.2917 44.3754 77.925V69.95C44.3754 69.7667 44.4004 69.6167 44.4504 69.5C44.5171 69.3833 44.6087 69.2833 44.7254 69.2L50.0504 65.3C50.2337 65.1667 50.3837 65.0833 50.5004 65.05C50.6171 65.0167 50.7337 65 50.8504 65H56.9254C57.3421 65 57.5504 65.2083 57.5504 65.625V69.55C57.5504 69.8333 57.5254 70.025 57.4754 70.125C57.4421 70.225 57.3587 70.3083 57.2254 70.375L52.5004 72.925V75.825L57.5504 78.325C57.8337 78.4417 57.9754 78.6917 57.9754 79.075V86.75C57.9754 87.1667 57.8337 87.5 57.5504 87.75L52.2254 92.175C51.9587 92.3917 51.6254 92.5 51.2254 92.5H45.0004Z" fill="#7AD7F0"/>
<path d="M71.3418 92.5C71.0085 92.5 70.6751 92.3917 70.3418 92.175L66.2668 89.425L63.4668 84.925C63.3501 84.7083 63.2501 84.5667 63.1668 84.5C63.0835 84.4167 63.0418 84.25 63.0418 84V73.5C63.0418 73.25 63.0751 73.0833 63.1418 73C63.2085 72.9167 63.3168 72.7667 63.4668 72.55L66.0168 68.3L70.3418 65.325C70.4918 65.225 70.6418 65.15 70.7918 65.1C70.9418 65.0333 71.1251 65 71.3418 65H75.6668C76.0835 65 76.2918 65.2083 76.2918 65.625V70.3C76.2918 70.4333 76.2751 70.575 76.2418 70.725C76.2251 70.875 76.1501 70.9917 76.0168 71.075L73.1668 72.5L70.9668 75.375V82.05L73.2918 84.7L76.0168 86.425C76.1835 86.525 76.2668 86.65 76.2668 86.8C76.2835 86.9333 76.2918 87.0667 76.2918 87.2V91.875C76.2918 92.2917 76.0835 92.5 75.6668 92.5H71.3418Z" fill="#FFA03E"/>
<path d="M87.5332 92.5C87.1499 92.5 86.8165 92.3583 86.5332 92.075L81.5332 87.075C81.2499 86.8083 81.1082 86.475 81.1082 86.075V71.425C81.1082 71.025 81.2499 70.6917 81.5332 70.425L86.5332 65.425C86.8165 65.1417 87.1499 65 87.5332 65H95.1082C95.5082 65 95.8415 65.1417 96.1082 65.425L101.108 70.425C101.392 70.6917 101.533 71.025 101.533 71.425V86.075C101.533 86.475 101.392 86.8083 101.108 87.075L96.1082 92.075C95.8415 92.3583 95.5082 92.5 95.1082 92.5H87.5332ZM90.4582 86.675H92.2082C92.7415 86.675 93.1082 86.5667 93.3082 86.35C93.5082 86.1333 93.6082 85.75 93.6082 85.2V72.3C93.6082 71.75 93.5082 71.3667 93.3082 71.15C93.1082 70.9333 92.7415 70.825 92.2082 70.825H90.4582C89.9082 70.825 89.5332 70.9333 89.3332 71.15C89.1332 71.3667 89.0332 71.75 89.0332 72.3V85.2C89.0332 85.75 89.1332 86.1333 89.3332 86.35C89.5332 86.5667 89.9082 86.675 90.4582 86.675Z" fill="#F34B37"/>
<path d="M107.682 92.5C107.266 92.5 107.057 92.2917 107.057 91.875V59.8C107.057 59.3833 107.266 59.175 107.682 59.175H114.357C114.774 59.175 114.982 59.3833 114.982 59.8V91.875C114.982 92.2917 114.774 92.5 114.357 92.5H107.682ZM120.817 92.5C120.401 92.5 120.192 92.2917 120.192 91.875V59.8C120.192 59.3833 120.401 59.175 120.817 59.175H127.492C127.909 59.175 128.117 59.3833 128.117 59.8V91.875C128.117 92.2917 127.909 92.5 127.492 92.5H120.817ZM144.827 92.5C144.66 92.5 144.477 92.475 144.277 92.425C144.094 92.375 143.919 92.3333 143.752 92.3L139.302 91.2L134.202 89.5C133.702 89.3333 133.452 88.85 133.452 88.05V71.425C133.452 71.025 133.594 70.6917 133.877 70.425L138.877 65.425C139.16 65.1417 139.494 65 139.877 65H147.877C148.26 65 148.594 65.1417 148.877 65.425L153.877 70.425C154.16 70.6917 154.302 71.025 154.302 71.425V81.675H140.877L140.702 85L144.252 86.175L150.627 86.625C150.91 86.675 151.052 86.8667 151.052 87.2V91.875C151.052 92.2917 150.844 92.5 150.427 92.5H144.827ZM143.827 77.75H144.302C145.119 77.75 145.769 77.4417 146.252 76.825C146.752 76.2083 147.002 75.375 147.002 74.325V73.825C147.002 72.7917 146.752 71.9667 146.252 71.35C145.769 70.7333 145.119 70.425 144.302 70.425H143.802C143.002 70.425 142.36 70.7333 141.877 71.35C141.41 71.9667 141.177 72.7917 141.177 73.825V74.325C141.177 75.375 141.41 76.2083 141.877 76.825C142.36 77.4417 143.01 77.75 143.827 77.75ZM167.631 92.5C167.298 92.5 166.964 92.3917 166.631 92.175L162.556 89.425L159.756 84.925C159.639 84.7083 159.539 84.5667 159.456 84.5C159.373 84.4167 159.331 84.25 159.331 84V73.5C159.331 73.25 159.364 73.0833 159.431 73C159.498 72.9167 159.606 72.7667 159.756 72.55L162.306 68.3L166.631 65.325C166.781 65.225 166.931 65.15 167.081 65.1C167.231 65.0333 167.414 65 167.631 65H171.956C172.373 65 172.581 65.2083 172.581 65.625V70.3C172.581 70.4333 172.564 70.575 172.531 70.725C172.514 70.875 172.439 70.9917 172.306 71.075L169.456 72.5L167.256 75.375V82.05L169.581 84.7L172.306 86.425C172.473 86.525 172.556 86.65 172.556 86.8C172.573 86.9333 172.581 87.0667 172.581 87.2V91.875C172.581 92.2917 172.373 92.5 171.956 92.5H167.631ZM183.322 92.5C182.939 92.5 182.606 92.3583 182.322 92.075L178.147 87.925C177.881 87.6417 177.747 87.3083 177.747 86.925V70.825H176.697C176.281 70.825 176.072 70.6167 176.072 70.2V65.625C176.072 65.2083 176.281 65 176.697 65H177.747V61.875C177.747 61.4583 177.956 61.25 178.372 61.25H185.022C185.439 61.25 185.647 61.4583 185.647 61.875V65H188.072C188.489 65 188.697 65.2083 188.697 65.625V70.2C188.697 70.6167 188.489 70.825 188.072 70.825H185.647V84.175C185.647 84.4917 185.747 84.75 185.947 84.95L188.397 87.425C188.564 87.575 188.647 87.825 188.647 88.175V91.875C188.647 92.2917 188.439 92.5 188.022 92.5H183.322ZM193.822 92.5C193.406 92.5 193.197 92.2917 193.197 91.875V65.625C193.197 65.2083 193.406 65 193.822 65H200.472C200.889 65 201.097 65.2083 201.097 65.625V91.875C201.097 92.2917 200.889 92.5 200.472 92.5H193.822ZM193.697 62.925C193.364 62.925 193.197 62.7583 193.197 62.425V59.25C193.197 58.9167 193.364 58.75 193.697 58.75H200.647C200.947 58.75 201.097 58.9167 201.097 59.25V62.425C201.097 62.7583 200.947 62.925 200.647 62.925H193.697ZM213.168 92.5C212.785 92.5 212.451 92.3583 212.168 92.075L207.168 87.075C206.885 86.8083 206.743 86.475 206.743 86.075V71.425C206.743 71.025 206.885 70.6917 207.168 70.425L212.168 65.425C212.451 65.1417 212.785 65 213.168 65H220.743C221.143 65 221.476 65.1417 221.743 65.425L226.743 70.425C227.026 70.6917 227.168 71.025 227.168 71.425V86.075C227.168 86.475 227.026 86.8083 226.743 87.075L221.743 92.075C221.476 92.3583 221.143 92.5 220.743 92.5H213.168ZM216.093 86.675H217.843C218.376 86.675 218.743 86.5667 218.943 86.35C219.143 86.1333 219.243 85.75 219.243 85.2V72.3C219.243 71.75 219.143 71.3667 218.943 71.15C218.743 70.9333 218.376 70.825 217.843 70.825H216.093C215.543 70.825 215.168 70.9333 214.968 71.15C214.768 71.3667 214.668 71.75 214.668 72.3V85.2C214.668 85.75 214.768 86.1333 214.968 86.35C215.168 86.5667 215.543 86.675 216.093 86.675ZM233.617 92.5C233.201 92.5 232.992 92.2917 232.992 91.875V65.625C232.992 65.2083 233.201 65 233.617 65H246.992C247.376 65 247.709 65.1417 247.992 65.425L252.992 70.425C253.276 70.6917 253.417 71.025 253.417 71.425V91.875C253.417 92.2917 253.209 92.5 252.792 92.5H246.117C245.701 92.5 245.492 92.2917 245.492 91.875V72.425C245.492 71.6417 245.101 71.25 244.317 71.25H240.917V91.875C240.917 92.2917 240.709 92.5 240.292 92.5H233.617Z" fill="white"/>
<g clip-path="url(#clip1_21_141)">
<path d="M128.5 80.5323C124.353 80.5323 120.299 81.762 116.851 84.066C113.403 86.3699 110.715 89.6446 109.128 93.476C107.541 97.3073 107.126 101.523 107.935 105.591C108.744 109.658 110.741 113.394 113.674 116.326C116.606 119.259 120.342 121.256 124.409 122.065C128.477 122.874 132.693 122.459 136.524 120.872C140.355 119.285 143.63 116.597 145.934 113.149C148.238 109.701 149.468 105.647 149.468 101.5C149.468 95.939 147.259 90.6058 143.326 86.6736C139.394 82.7414 134.061 80.5323 128.5 80.5323ZM128.5 106.339C127.543 106.339 126.607 106.055 125.812 105.523C125.016 104.992 124.396 104.236 124.03 103.352C123.663 102.468 123.568 101.495 123.754 100.556C123.941 99.6174 124.402 98.7552 125.079 98.0785C125.755 97.4018 126.617 96.941 127.556 96.7543C128.495 96.5676 129.468 96.6634 130.352 97.0296C131.236 97.3958 131.992 98.016 132.523 98.8118C133.055 99.6075 133.339 100.543 133.339 101.5C133.339 102.783 132.829 104.014 131.921 104.921C131.014 105.829 129.783 106.339 128.5 106.339ZM128.5 51.5C100.879 51.5 78.5 73.879 78.5 101.5C78.5 129.121 100.879 151.5 128.5 151.5C156.121 151.5 178.5 129.121 178.5 101.5C178.5 73.879 156.121 51.5 128.5 51.5ZM128.5 127.306C123.396 127.306 118.407 125.793 114.163 122.957C109.919 120.122 106.611 116.091 104.658 111.376C102.705 106.66 102.194 101.471 103.189 96.4654C104.185 91.4594 106.643 86.8612 110.252 83.2521C113.861 79.643 118.459 77.1852 123.465 76.1894C128.471 75.1937 133.66 75.7047 138.376 77.6579C143.091 79.6112 147.122 82.9189 149.957 87.1627C152.793 91.4066 154.306 96.396 154.306 101.5C154.306 108.344 151.588 114.908 146.748 119.748C141.908 124.588 135.344 127.306 128.5 127.306Z" fill="#EF7586"/>
<path d="M128.5 51.5C100.879 51.5 78.5 73.879 78.5 101.5C78.5 129.121 100.879 151.5 128.5 151.5C156.121 151.5 178.5 129.121 178.5 101.5C178.5 73.879 156.121 51.5 128.5 51.5ZM128.5 127.306C123.396 127.306 118.407 125.793 114.163 122.957C109.919 120.122 106.611 116.091 104.658 111.376C102.705 106.66 102.194 101.471 103.189 96.4654C104.185 91.4594 106.643 86.8612 110.252 83.2521C113.861 79.643 118.459 77.1852 123.465 76.1894C128.471 75.1937 133.66 75.7047 138.376 77.6579C143.091 79.6112 147.122 82.9189 149.957 87.1627C152.793 91.4066 154.306 96.396 154.306 101.5C154.306 108.344 151.588 114.908 146.748 119.748C141.908 124.588 135.344 127.306 128.5 127.306Z" fill="#40A7E2"/>
</g>
<defs>
<clipPath id="clip0_21_141">
<rect width="100" height="50" fill="white" transform="translate(78.5 0.5)"/>
</clipPath>
<clipPath id="clip1_21_141">
<rect width="100" height="50" fill="white" transform="matrix(-1 0 0 -1 178.5 151.5)"/>
</clipPath>
</defs>
</svg>
