<svg width="25" height="20" viewBox="0 0 25 20" fill="none" xmlns="http://www.w3.org/2000/svg">
<path d="M12.1695 5.32264L4.16732 11.9134V19.0266C4.16732 19.2108 4.24048 19.3875 4.37072 19.5177C4.50095 19.6479 4.67758 19.7211 4.86176 19.7211L9.72548 19.7085C9.90905 19.7076 10.0848 19.634 10.2143 19.5039C10.3438 19.3737 10.4165 19.1976 10.4164 19.0141V14.86C10.4164 14.6758 10.4896 14.4992 10.6198 14.3689C10.7501 14.2387 10.9267 14.1655 11.1109 14.1655H13.8887C14.0728 14.1655 14.2495 14.2387 14.3797 14.3689C14.51 14.4992 14.5831 14.6758 14.5831 14.86V19.011C14.5828 19.1024 14.6006 19.1929 14.6354 19.2774C14.6701 19.3619 14.7212 19.4387 14.7857 19.5035C14.8503 19.5682 14.9269 19.6195 15.0113 19.6546C15.0957 19.6896 15.1862 19.7076 15.2776 19.7076L20.1395 19.7211C20.3237 19.7211 20.5004 19.6479 20.6306 19.5177C20.7608 19.3875 20.834 19.2108 20.834 19.0266V11.9086L12.8335 5.32264C12.7395 5.24683 12.6223 5.20549 12.5015 5.20549C12.3807 5.20549 12.2635 5.24683 12.1695 5.32264ZM24.8097 9.80225L21.1812 6.81136V0.799642C21.1812 0.661508 21.1263 0.529032 21.0287 0.431357C20.931 0.333682 20.7985 0.278809 20.6604 0.278809H18.2298C18.0917 0.278809 17.9592 0.333682 17.8615 0.431357C17.7639 0.529032 17.709 0.661508 17.709 0.799642V3.95112L13.8231 0.754069C13.4502 0.447202 12.9823 0.279422 12.4993 0.279422C12.0164 0.279422 11.5485 0.447202 11.1756 0.754069L0.189019 9.80225C0.136279 9.84584 0.0926449 9.89939 0.0606102 9.95985C0.0285755 10.0203 0.00876769 10.0865 0.00231864 10.1546C-0.0041304 10.2227 0.00290567 10.2915 0.0230248 10.3568C0.043144 10.4222 0.075952 10.483 0.119574 10.5358L1.22634 11.8812C1.26985 11.9341 1.32336 11.9779 1.38381 12.0101C1.44426 12.0423 1.51047 12.0623 1.57864 12.0688C1.64681 12.0754 1.71561 12.0685 1.7811 12.0484C1.84659 12.0284 1.90748 11.9956 1.96029 11.952L12.1695 3.54313C12.2635 3.46732 12.3807 3.42597 12.5015 3.42597C12.6223 3.42597 12.7395 3.46732 12.8335 3.54313L23.0432 11.952C23.0959 11.9956 23.1567 12.0284 23.2221 12.0485C23.2875 12.0687 23.3562 12.0757 23.4243 12.0692C23.4924 12.0628 23.5586 12.043 23.6191 12.0109C23.6795 11.9789 23.7331 11.9353 23.7767 11.8825L24.8835 10.5371C24.927 10.484 24.9597 10.4229 24.9796 10.3572C24.9995 10.2916 25.0062 10.2226 24.9993 10.1543C24.9925 10.086 24.9722 10.0198 24.9396 9.95935C24.9071 9.89893 24.8629 9.84554 24.8097 9.80225Z" fill="white"/>
</svg>
