<svg width="40" height="40" viewBox="0 0 40 40" fill="none" xmlns="http://www.w3.org/2000/svg">
<mask id="mask0_12_245" style="mask-type:alpha" maskUnits="userSpaceOnUse" x="0" y="0" width="40" height="40">
<rect width="40" height="40" fill="#D9D9D9"/>
</mask>
<g mask="url(#mask0_12_245)">
<path d="M35.0416 18.4167V31.6667C35.0416 32.5833 34.7152 33.3681 34.0624 34.0208C33.4096 34.6736 32.6249 35 31.7083 35H8.37492C7.45826 35 6.67353 34.6736 6.02076 34.0208C5.36798 33.3681 5.04159 32.5833 5.04159 31.6667V18.4167C4.4027 17.8333 3.90965 17.0833 3.56242 16.1667C3.2152 15.25 3.20826 14.25 3.54159 13.1667L5.29159 7.5C5.51381 6.77778 5.90965 6.18056 6.47909 5.70833C7.04853 5.23611 7.70826 5 8.45826 5H31.6249C32.3749 5 33.0277 5.22917 33.5833 5.6875C34.1388 6.14583 34.5416 6.75 34.7916 7.5L36.5416 13.1667C36.8749 14.25 36.868 15.2361 36.5208 16.125C36.1735 17.0139 35.6805 17.7778 35.0416 18.4167ZM23.7083 16.6667C24.4583 16.6667 25.0277 16.4097 25.4166 15.8958C25.8055 15.3819 25.9583 14.8056 25.8749 14.1667L24.9583 8.33333H21.7083V14.5C21.7083 15.0833 21.9027 15.5903 22.2916 16.0208C22.6805 16.4514 23.1527 16.6667 23.7083 16.6667ZM16.2083 16.6667C16.8471 16.6667 17.368 16.4514 17.7708 16.0208C18.1735 15.5903 18.3749 15.0833 18.3749 14.5V8.33333H15.1249L14.2083 14.1667C14.0971 14.8333 14.243 15.4167 14.6458 15.9167C15.0485 16.4167 15.5694 16.6667 16.2083 16.6667ZM8.79159 16.6667C9.29159 16.6667 9.72909 16.4861 10.1041 16.125C10.4791 15.7639 10.7083 15.3056 10.7916 14.75L11.7083 8.33333H8.45826L6.79159 13.9167C6.62492 14.4722 6.7152 15.0694 7.06242 15.7083C7.40965 16.3472 7.98603 16.6667 8.79159 16.6667ZM31.2916 16.6667C32.0971 16.6667 32.6805 16.3472 33.0416 15.7083C33.4027 15.0694 33.486 14.4722 33.2916 13.9167L31.5416 8.33333H28.3749L29.2916 14.75C29.3749 15.3056 29.6041 15.7639 29.9791 16.125C30.3541 16.4861 30.7916 16.6667 31.2916 16.6667ZM8.37492 31.6667H31.7083V19.9167C31.5694 19.9722 31.4791 20 31.4374 20H31.2916C30.5416 20 29.8819 19.875 29.3124 19.625C28.743 19.375 28.1805 18.9722 27.6249 18.4167C27.1249 18.9167 26.5555 19.3056 25.9166 19.5833C25.2777 19.8611 24.5971 20 23.8749 20C23.1249 20 22.4235 19.8611 21.7708 19.5833C21.118 19.3056 20.5416 18.9167 20.0416 18.4167C19.5694 18.9167 19.0208 19.3056 18.3958 19.5833C17.7708 19.8611 17.0971 20 16.3749 20C15.5694 20 14.8402 19.8611 14.1874 19.5833C13.5346 19.3056 12.9583 18.9167 12.4583 18.4167C11.8749 19 11.2985 19.4097 10.7291 19.6458C10.1596 19.8819 9.51381 20 8.79159 20H8.60409C8.53465 20 8.45826 19.9722 8.37492 19.9167V31.6667Z" fill="white"/>
</g>
</svg>
