<svg width="40" height="40" viewBox="0 0 40 40" fill="none" xmlns="http://www.w3.org/2000/svg">
<mask id="mask0_12_238" style="mask-type:alpha" maskUnits="userSpaceOnUse" x="0" y="0" width="40" height="40">
<rect width="40" height="40" fill="#D9D9D9"/>
</mask>
<g mask="url(#mask0_12_238)">
<path d="M0 30.004V27.379C0 26.1568 0.618056 25.1776 1.85417 24.4415C3.09028 23.7054 4.69444 23.3374 6.66667 23.3374C7.02778 23.3374 7.375 23.3443 7.70833 23.3582C8.04167 23.3721 8.36111 23.4068 8.66667 23.4624C8.27778 24.0179 7.98611 24.6151 7.79167 25.254C7.59722 25.8929 7.5 26.5735 7.5 27.2957V30.004H0ZM10 30.004V27.2957C10 25.4901 10.9236 24.0318 12.7708 22.9207C14.6181 21.8096 17.0278 21.254 20 21.254C23 21.254 25.4167 21.8096 27.25 22.9207C29.0833 24.0318 30 25.4901 30 27.2957V30.004H10ZM32.5 30.004V27.2957C32.5 26.5735 32.4097 25.8929 32.2292 25.254C32.0486 24.6151 31.7778 24.0179 31.4167 23.4624C31.7222 23.4068 32.0347 23.3721 32.3542 23.3582C32.6736 23.3443 33 23.3374 33.3333 23.3374C35.3333 23.3374 36.9444 23.7054 38.1667 24.4415C39.3889 25.1776 40 26.1568 40 27.379V30.004H32.5ZM20 24.5874C18.4167 24.5874 17 24.7957 15.75 25.2124C14.5 25.629 13.7639 26.1151 13.5417 26.6707H26.5C26.25 26.1151 25.5069 25.629 24.2708 25.2124C23.0347 24.7957 21.6111 24.5874 20 24.5874ZM6.66667 21.6707C5.75 21.6707 4.96528 21.3443 4.3125 20.6915C3.65972 20.0388 3.33333 19.254 3.33333 18.3374C3.33333 17.3929 3.65972 16.6013 4.3125 15.9624C4.96528 15.3235 5.75 15.004 6.66667 15.004C7.61111 15.004 8.40278 15.3235 9.04167 15.9624C9.68056 16.6013 10 17.3929 10 18.3374C10 19.254 9.68056 20.0388 9.04167 20.6915C8.40278 21.3443 7.61111 21.6707 6.66667 21.6707ZM33.3333 21.6707C32.4167 21.6707 31.6319 21.3443 30.9792 20.6915C30.3264 20.0388 30 19.254 30 18.3374C30 17.3929 30.3264 16.6013 30.9792 15.9624C31.6319 15.3235 32.4167 15.004 33.3333 15.004C34.2778 15.004 35.0694 15.3235 35.7083 15.9624C36.3472 16.6013 36.6667 17.3929 36.6667 18.3374C36.6667 19.254 36.3472 20.0388 35.7083 20.6915C35.0694 21.3443 34.2778 21.6707 33.3333 21.6707ZM20 20.004C18.6111 20.004 17.4306 19.5179 16.4583 18.5457C15.4861 17.5735 15 16.3929 15 15.004C15 13.5874 15.4861 12.3999 16.4583 11.4415C17.4306 10.4832 18.6111 10.004 20 10.004C21.4167 10.004 22.6042 10.4832 23.5625 11.4415C24.5208 12.3999 25 13.5874 25 15.004C25 16.3929 24.5208 17.5735 23.5625 18.5457C22.6042 19.5179 21.4167 20.004 20 20.004ZM20 13.3374C19.5278 13.3374 19.1319 13.4971 18.8125 13.8165C18.4931 14.136 18.3333 14.5318 18.3333 15.004C18.3333 15.4763 18.4931 15.8721 18.8125 16.1915C19.1319 16.511 19.5278 16.6707 20 16.6707C20.4722 16.6707 20.8681 16.511 21.1875 16.1915C21.5069 15.8721 21.6667 15.4763 21.6667 15.004C21.6667 14.5318 21.5069 14.136 21.1875 13.8165C20.8681 13.4971 20.4722 13.3374 20 13.3374Z" fill="white"/>
</g>
</svg>
