<svg width="50" height="55" viewBox="0 0 50 55" fill="none" xmlns="http://www.w3.org/2000/svg">
<g clip-path="url(#clip0_9_188)">
<path d="M25 14.5161C22.9265 14.5161 20.8995 15.131 19.1755 16.283C17.4514 17.435 16.1077 19.0723 15.3142 20.988C14.5207 22.9037 14.3131 25.0116 14.7176 27.0453C15.1221 29.079 16.1206 30.947 17.5868 32.4132C19.053 33.8794 20.921 34.8779 22.9547 35.2824C24.9884 35.6869 27.0963 35.4793 29.012 34.6858C30.9277 33.8923 32.565 32.5486 33.717 30.8245C34.869 29.1005 35.4839 27.0735 35.4839 25C35.4839 22.2195 34.3793 19.5529 32.4132 17.5868C30.4471 15.6207 27.7805 14.5161 25 14.5161ZM25 27.4194C24.5215 27.4194 24.0537 27.2775 23.6559 27.0116C23.258 26.7458 22.9479 26.3679 22.7648 25.9258C22.5817 25.4838 22.5338 24.9973 22.6271 24.528C22.7205 24.0587 22.9509 23.6276 23.2893 23.2893C23.6276 22.9509 24.0587 22.7205 24.528 22.6271C24.9973 22.5338 25.4838 22.5817 25.9258 22.7648C26.3679 22.9479 26.7458 23.258 27.0116 23.6559C27.2775 24.0537 27.4194 24.5215 27.4194 25C27.4194 25.6417 27.1645 26.257 26.7107 26.7107C26.257 27.1645 25.6417 27.4194 25 27.4194ZM25 0C11.1895 0 0 11.1895 0 25C0 38.8105 11.1895 50 25 50C38.8105 50 50 38.8105 50 25C50 11.1895 38.8105 0 25 0ZM25 37.9032C22.448 37.9032 19.9533 37.1465 17.8314 35.7286C15.7094 34.3108 14.0556 32.2956 13.079 29.9379C12.1024 27.5801 11.8468 24.9857 12.3447 22.4827C12.8426 19.9797 14.0715 17.6806 15.876 15.876C17.6806 14.0715 19.9797 12.8426 22.4827 12.3447C24.9857 11.8468 27.5801 12.1024 29.9379 13.079C32.2956 14.0556 34.3108 15.7094 35.7286 17.8314C37.1465 19.9533 37.9032 22.448 37.9032 25C37.9032 28.4221 36.5438 31.7041 34.124 34.124C31.7041 36.5438 28.4221 37.9032 25 37.9032Z" fill="#0D8293"/>
<path d="M25 0C11.1895 0 0 11.1895 0 25C0 38.8105 11.1895 50 25 50C38.8105 50 50 38.8105 50 25C50 11.1895 38.8105 0 25 0ZM25 37.9032C22.448 37.9032 19.9533 37.1465 17.8314 35.7286C15.7094 34.3108 14.0556 32.2956 13.079 29.9379C12.1024 27.5801 11.8468 24.9857 12.3447 22.4827C12.8426 19.9797 14.0715 17.6806 15.876 15.876C17.6806 14.0715 19.9797 12.8426 22.4827 12.3447C24.9857 11.8468 27.5801 12.1024 29.9379 13.079C32.2956 14.0556 34.3108 15.7094 35.7286 17.8314C37.1465 19.9533 37.9032 22.448 37.9032 25C37.9032 28.4221 36.5438 31.7041 34.124 34.124C31.7041 36.5438 28.4221 37.9032 25 37.9032Z" fill="#EAE05C"/>
</g>
<g clip-path="url(#clip1_9_188)">
<path d="M25 19.5161C22.9265 19.5161 20.8995 20.131 19.1755 21.283C17.4514 22.435 16.1077 24.0723 15.3142 25.988C14.5207 27.9037 14.3131 30.0116 14.7176 32.0453C15.1221 34.079 16.1206 35.947 17.5868 37.4132C19.053 38.8794 20.921 39.8779 22.9547 40.2824C24.9884 40.6869 27.0963 40.4793 29.012 39.6858C30.9277 38.8923 32.565 37.5486 33.717 35.8245C34.869 34.1005 35.4839 32.0735 35.4839 30C35.4839 27.2195 34.3793 24.5529 32.4132 22.5868C30.4471 20.6207 27.7805 19.5161 25 19.5161ZM25 32.4194C24.5215 32.4194 24.0537 32.2775 23.6559 32.0116C23.258 31.7458 22.9479 31.3679 22.7648 30.9258C22.5817 30.4838 22.5338 29.9973 22.6271 29.528C22.7205 29.0587 22.9509 28.6276 23.2893 28.2893C23.6276 27.9509 24.0587 27.7205 24.528 27.6271C24.9973 27.5338 25.4838 27.5817 25.9258 27.7648C26.3679 27.9479 26.7458 28.258 27.0116 28.6559C27.2775 29.0537 27.4194 29.5215 27.4194 30C27.4194 30.6417 27.1645 31.257 26.7107 31.7107C26.257 32.1645 25.6417 32.4194 25 32.4194ZM25 5C11.1895 5 0 16.1895 0 30C0 43.8105 11.1895 55 25 55C38.8105 55 50 43.8105 50 30C50 16.1895 38.8105 5 25 5ZM25 42.9032C22.448 42.9032 19.9533 42.1465 17.8314 40.7286C15.7094 39.3108 14.0556 37.2956 13.079 34.9379C12.1024 32.5801 11.8468 29.9857 12.3447 27.4827C12.8426 24.9797 14.0715 22.6806 15.876 20.876C17.6806 19.0715 19.9797 17.8426 22.4827 17.3447C24.9857 16.8468 27.5801 17.1024 29.9379 18.079C32.2956 19.0556 34.3108 20.7094 35.7286 22.8314C37.1465 24.9533 37.9032 27.448 37.9032 30C37.9032 33.4221 36.5438 36.7041 34.124 39.124C31.7041 41.5438 28.4221 42.9032 25 42.9032Z" fill="#EF7586"/>
<path d="M25 5C11.1895 5 0 16.1895 0 30C0 43.8105 11.1895 55 25 55C38.8105 55 50 43.8105 50 30C50 16.1895 38.8105 5 25 5ZM25 42.9032C22.448 42.9032 19.9533 42.1465 17.8314 40.7286C15.7094 39.3108 14.0556 37.2956 13.079 34.9379C12.1024 32.5801 11.8468 29.9857 12.3447 27.4827C12.8426 24.9797 14.0715 22.6806 15.876 20.876C17.6806 19.0715 19.9797 17.8426 22.4827 17.3447C24.9857 16.8468 27.5801 17.1024 29.9379 18.079C32.2956 19.0556 34.3108 20.7094 35.7286 22.8314C37.1465 24.9533 37.9032 27.448 37.9032 30C37.9032 33.4221 36.5438 36.7041 34.124 39.124C31.7041 41.5438 28.4221 42.9032 25 42.9032Z" fill="#40A7E2"/>
</g>
<defs>
<clipPath id="clip0_9_188">
<rect width="50" height="25" fill="white"/>
</clipPath>
<clipPath id="clip1_9_188">
<rect width="50" height="25" fill="white" transform="matrix(-1 0 0 -1 50 55)"/>
</clipPath>
</defs>
</svg>
