<svg width="20" height="20" viewBox="0 0 20 20" fill="none" xmlns="http://www.w3.org/2000/svg">
<path d="M10 5.80645C9.17059 5.80645 8.35981 6.0524 7.67019 6.51319C6.98056 6.97398 6.44307 7.62893 6.12567 8.3952C5.80827 9.16147 5.72522 10.0047 5.88703 10.8181C6.04884 11.6316 6.44824 12.3788 7.03471 12.9653C7.62119 13.5518 8.36841 13.9512 9.18188 14.113C9.99535 14.2748 10.8385 14.1917 11.6048 13.8743C12.3711 13.5569 13.026 13.0194 13.4868 12.3298C13.9476 11.6402 14.1935 10.8294 14.1935 10C14.1935 8.8878 13.7517 7.82116 12.9653 7.03471C12.1788 6.24827 11.1122 5.80645 10 5.80645ZM10 10.9677C9.8086 10.9677 9.6215 10.911 9.46235 10.8046C9.30321 10.6983 9.17917 10.5472 9.10592 10.3703C9.03268 10.1935 9.01351 9.99893 9.05085 9.8112C9.08819 9.62348 9.18036 9.45104 9.3157 9.3157C9.45104 9.18036 9.62348 9.08819 9.8112 9.05085C9.99893 9.01351 10.1935 9.03268 10.3703 9.10592C10.5472 9.17917 10.6983 9.30321 10.8046 9.46235C10.911 9.6215 10.9677 9.8086 10.9677 10C10.9677 10.2567 10.8658 10.5028 10.6843 10.6843C10.5028 10.8658 10.2567 10.9677 10 10.9677ZM10 0C4.47581 0 0 4.47581 0 10C0 15.5242 4.47581 20 10 20C15.5242 20 20 15.5242 20 10C20 4.47581 15.5242 0 10 0ZM10 15.1613C8.97919 15.1613 7.98131 14.8586 7.13254 14.2915C6.28377 13.7243 5.62224 12.9182 5.23159 11.9751C4.84094 11.032 4.73873 9.99427 4.93788 8.99308C5.13703 7.99189 5.6286 7.07224 6.35042 6.35042C7.07224 5.6286 7.99189 5.13703 8.99308 4.93788C9.99427 4.73873 11.032 4.84094 11.9751 5.23159C12.9182 5.62224 13.7243 6.28377 14.2915 7.13254C14.8586 7.98131 15.1613 8.97919 15.1613 10C15.1613 11.3689 14.6175 12.6817 13.6496 13.6496C12.6817 14.6175 11.3689 15.1613 10 15.1613Z" fill="white"/>
</svg>
