<svg width="25" height="25" viewBox="0 0 25 25" fill="none" xmlns="http://www.w3.org/2000/svg">
<mask id="mask0_21_174" style="mask-type:alpha" maskUnits="userSpaceOnUse" x="0" y="0" width="25" height="25">
<rect width="25" height="25" fill="#D9D9D9"/>
</mask>
<g mask="url(#mask0_21_174)">
<path d="M11.4583 20.8333C11.1631 20.8333 10.9157 20.7335 10.7161 20.5338C10.5164 20.3342 10.4166 20.0868 10.4166 19.7917V13.5417L4.37492 5.83332C4.1145 5.4861 4.07544 5.12152 4.25773 4.73957C4.44003 4.35763 4.75687 4.16666 5.20825 4.16666H19.7916C20.243 4.16666 20.5598 4.35763 20.7421 4.73957C20.9244 5.12152 20.8853 5.4861 20.6249 5.83332L14.5833 13.5417V19.7917C14.5833 20.0868 14.4834 20.3342 14.2838 20.5338C14.0841 20.7335 13.8367 20.8333 13.5416 20.8333H11.4583ZM12.4999 12.8125L17.6562 6.24999H7.34367L12.4999 12.8125Z" fill="white"/>
</g>
</svg>
